<svg version="1.1" xmlns="http://www.w3.org/2000/svg" xmlns:xlink="http://www.w3.org/1999/xlink" width="1000mm" height="1000mm" viewBox="0,0,256,256"><g fill="#a14015" fill-rule="nonzero" stroke="none" stroke-width="1" stroke-linecap="butt" stroke-linejoin="miter" stroke-miterlimit="10" stroke-dasharray="" stroke-dashoffset="0" font-family="none" font-weight="none" font-size="none" text-anchor="none" style="mix-blend-mode: normal"><g transform="scale(0.256,0.256)"><path d="M500,0c-276,0 -500,224 -500,500c0,276 224,500 500,500c276,0 500,-224 500,-500c0,-276 -224,-500 -500,-500v0M500,50c249,0 450,201 450,450c0,249 -201,450 -450,450c-249,0 -450,-201 -450,-450c0,-249 201,-450 450,-450v0M657,650c-96,24 -108,24 -156,24c-49,0 -58,0 -154,-24c-47,0 -76,7 -96,19c-19,12 -33,30 -49,59c63,87 180,148 298,147v0c97,2 212,-36 301,-152c-15,-29 -29,-45 -47,-56c-20,-11 -49,-17 -97,-17v0M349,600c2,0 3,0 5,0c1,0 3,1 4,1c96,25 93,23 143,23c49,0 48,2 147,-23c2,-1 4,-1 6,-1c53,0 93,5 125,24c32,19 54,49 74,90c5,8 4,18 -2,26c-99,139 -237,187 -351,185c-141,1 -277,-72 -348,-181c-5,-8 -5,-17 -1,-25c20,-41 41,-72 73,-92c32,-20 71,-27 123,-27c1,0 1,0 2,0v0v0v0M501,438c15,0 27,12 27,26c0,15 -12,27 -27,27c-7,0 -13,-3 -18,-8c-5,-5 -8,-12 -8,-19c0,-7 3,-14 8,-19c5,-5 11,-7 18,-7v0M510,208c31,0 57,11 72,30c16,19 21,43 20,66c0,18 -9,33 -19,44c-10,10 -20,17 -29,24c-9,7 -17,13 -21,18c-5,6 -7,10 -7,18c0,9 -5,18 -13,22c-7,4 -17,4 -25,0c-8,-5 -12,-14 -12,-23c0,-19 8,-36 18,-48c9,-12 20,-20 30,-27c10,-7 18,-13 22,-18c5,-5 6,-8 6,-13c1,-13 -2,-24 -8,-31c-6,-7 -15,-12 -35,-12c-30,0 -36,13 -41,27c-3,8 -10,15 -19,16c-9,2 -18,-2 -24,-8c-6,-7 -7,-17 -4,-25c10,-27 39,-60 88,-60h1v0M501,154c-109,0 -198,89 -198,198c0,109 89,198 198,198c109,0 198,-89 198,-198c0,-109 -89,-198 -198,-198v0M501,104c1,0 1,0 2,0c136,1 246,112 246,248c0,137 -111,248 -248,248c-137,0 -248,-111 -248,-248c0,-137 111,-248 248,-248v0" id="path"></path></g></g></svg>